<?xml version="1.0" encoding="iso-8859-1"?>
<!-- Uploaded to: SVG Repo, www.svgrepo.com, Generator: SVG Repo Mixer Tools -->
<svg height="800px" width="800px" version="1.1" id="Layer_1" xmlns="http://www.w3.org/2000/svg" xmlns:xlink="http://www.w3.org/1999/xlink" 
	 viewBox="0 0 512 512" xml:space="preserve">
<path style="fill:#FFE76D;" d="M453.996,93.719H58.004C21.754,137.887,0,194.401,0,256c0,141.38,114.62,256,256,256
	s256-114.62,256-256C512,194.401,490.246,137.887,453.996,93.719z"/>
<path style="fill:#FFD608;" d="M256,0c79.781,0,151.051,36.5,197.996,93.719c-36.329,24.769-60.177,66.48-60.177,113.766v49.027
	c0,76.117-61.702,137.819-137.819,137.819s-137.819-61.702-137.819-137.819v-49.027c0-47.286-23.848-88.997-60.177-113.766
	C104.949,36.5,176.219,0,256,0z"/>
</svg>